<?xml version="1.0" encoding="UTF-8" standalone="no"?>
<!DOCTYPE svg PUBLIC "-//W3C//DTD SVG 1.1//EN" "http://www.w3.org/Graphics/SVG/1.1/DTD/svg11.dtd">
<svg width="100%" height="100%" viewBox="0 0 100 100" version="1.1" xmlns="http://www.w3.org/2000/svg" xmlns:xlink="http://www.w3.org/1999/xlink" xml:space="preserve" xmlns:serif="http://www.serif.com/" style="fill-rule:evenodd;clip-rule:evenodd;stroke-linejoin:round;stroke-miterlimit:1.41421;">
    <path d="M77.5,62.5C78.88,62.5 80,63.62 80,65L80,70C80,71.38 78.88,72.5 77.5,72.5L22.5,72.5C21.12,72.5 20,71.38 20,70L20,65C20,63.62 21.12,62.5 22.5,62.5L77.5,62.5ZM77.5,45C78.88,45 80,46.12 80,47.5L80,52.5C80,53.88 78.88,55 77.5,55L22.5,55C21.12,55 20,53.88 20,52.5L20,47.5C20,46.12 21.12,45 22.5,45L77.5,45ZM77.5,27.5C78.88,27.5 80,28.62 80,30L80,35C80,36.38 78.88,37.5 77.5,37.5L22.5,37.5C21.12,37.5 20,36.38 20,35L20,30C20,28.62 21.12,27.5 22.5,27.5L77.5,27.5Z"/>
</svg>
