<?xml version="1.0" encoding="UTF-8" standalone="no"?>
<!DOCTYPE svg PUBLIC "-//W3C//DTD SVG 1.1//EN" "http://www.w3.org/Graphics/SVG/1.1/DTD/svg11.dtd">
<svg width="100%" height="100%" viewBox="0 0 100 100" version="1.1" xmlns="http://www.w3.org/2000/svg" xmlns:xlink="http://www.w3.org/1999/xlink" xml:space="preserve" xmlns:serif="http://www.serif.com/" style="fill-rule:evenodd;clip-rule:evenodd;stroke-linejoin:round;stroke-miterlimit:1.41421;">
    <path d="M52.5,20C53.88,20 55,21.12 55,22.5L55,45L77.5,45C78.88,45 80,46.12 80,47.5L80,52.5C80,53.88 78.88,55 77.5,55L55,55L55,77.5C55,78.88 53.88,80 52.5,80L47.5,80C46.12,80 45,78.88 45,77.5L45,55L22.5,55C21.12,55 20,53.88 20,52.5L20,47.5C20,46.12 21.12,45 22.5,45L45,45L45,22.5C45,21.12 46.12,20 47.5,20L52.5,20Z"/>
</svg>
