<?xml version="1.0" encoding="UTF-8" standalone="no"?>
<!DOCTYPE svg PUBLIC "-//W3C//DTD SVG 1.1//EN" "http://www.w3.org/Graphics/SVG/1.1/DTD/svg11.dtd">
<svg width="100%" height="100%" viewBox="0 0 100 100" version="1.1" xmlns="http://www.w3.org/2000/svg" xmlns:xlink="http://www.w3.org/1999/xlink" xml:space="preserve" xmlns:serif="http://www.serif.com/" style="fill-rule:evenodd;clip-rule:evenodd;stroke-linejoin:round;stroke-miterlimit:1.41421;">
    <path d="M57.5,85L42.5,85C33.522,84.94 30.713,78.578 30,72.5L26.389,40L73.611,40L70,72.5C69.193,78.891 66.343,84.912 57.5,85ZM40.249,47.874C40.188,47.186 39.582,46.677 38.894,46.737L36.404,46.955C35.717,47.015 35.207,47.622 35.268,48.309L37.49,73.712C37.55,74.4 38.157,74.909 38.844,74.849L41.335,74.631C42.022,74.571 42.531,73.964 42.471,73.277L40.249,47.874ZM64.732,48.309C64.793,47.622 64.283,47.015 63.596,46.955L61.106,46.737C60.418,46.677 59.812,47.186 59.751,47.874L57.529,73.277C57.469,73.964 57.978,74.571 58.665,74.631L61.156,74.849C61.843,74.909 62.45,74.4 62.51,73.712L64.732,48.309ZM51.25,46.787L48.75,46.787C48.06,46.787 47.5,47.347 47.5,48.037L47.5,73.537C47.5,74.227 48.06,74.787 48.75,74.787L51.25,74.787C51.94,74.787 52.5,74.227 52.5,73.537L52.5,48.037C52.5,47.347 51.94,46.787 51.25,46.787Z"/>
    <g transform="matrix(0.988916,0,0,1.43447,0.692402,-17.6657)">
        <path d="M75.14,34.536C75.14,33.814 74.291,33.229 73.244,33.229L26.476,33.229C25.43,33.229 24.58,33.814 24.58,34.536L24.58,37.15C24.58,37.871 25.43,38.457 26.476,38.457L73.244,38.457C74.291,38.457 75.14,37.871 75.14,37.15L75.14,34.536Z"/>
    </g>
    <g transform="matrix(0.705032,0,0,1.64609,15.8325,-4.17855)">
        <path d="M52.008,14.688C54.024,14.714 55.554,15.385 55.554,16.207L55.554,19.245L41.371,19.245L41.371,16.207C41.371,15.385 42.9,14.714 44.916,14.688L52.008,14.688Z"/>
    </g>
</svg>
