<?xml version="1.0" encoding="UTF-8" standalone="no"?>
<!DOCTYPE svg PUBLIC "-//W3C//DTD SVG 1.1//EN" "http://www.w3.org/Graphics/SVG/1.1/DTD/svg11.dtd">
<svg width="100%" height="100%" viewBox="0 0 100 100" version="1.1" xmlns="http://www.w3.org/2000/svg" xmlns:xlink="http://www.w3.org/1999/xlink" xml:space="preserve" xmlns:serif="http://www.serif.com/" style="fill-rule:evenodd;clip-rule:evenodd;stroke-linejoin:round;stroke-miterlimit:1.41421;">
    <path d="M24.007,36.878C24.046,36.832 24.087,36.788 24.13,36.745L27.666,33.209C28.641,32.234 30.225,32.234 31.201,33.209L36.584,38.593C37.56,39.568 37.56,41.153 36.584,42.128L33.049,45.664C32.073,46.639 30.489,46.639 29.513,45.664L29.438,45.588L20.926,54.101L20.926,80.57L47.394,80.57L55.907,72.057L55.832,71.982C54.856,71.007 54.856,69.423 55.832,68.447L59.368,64.911C60.343,63.936 61.927,63.936 62.903,64.911L68.286,70.295C69.262,71.27 69.262,72.854 68.286,73.83L64.751,77.366C64.705,77.412 64.658,77.455 64.609,77.497L52.268,89.838C51.78,90.326 51.139,90.57 50.498,90.57L50.497,90.57L18.097,90.57L13.42,90.57C12.043,90.57 10.926,89.449 10.926,88.07L10.926,83.07L10.926,50.998L10.926,50.997C10.925,50.356 11.169,49.715 11.657,49.227L24.007,36.878ZM52.866,41.558L68.936,25.488C69.911,24.513 71.496,24.513 72.471,25.488L76.007,29.024C76.982,30 76.982,31.584 76.007,32.559L59.937,48.629L43.867,64.699C42.892,65.674 41.308,65.674 40.332,64.699L36.796,61.163C35.821,60.188 35.821,58.603 36.796,57.628L52.866,41.558ZM77.963,9.23L92.265,23.532C93.241,24.508 93.241,26.092 92.265,27.068L88.729,30.603C87.754,31.579 86.17,31.579 85.194,30.603L70.892,16.301C69.916,15.326 69.916,13.741 70.892,12.766L74.427,9.23C75.403,8.255 76.987,8.255 77.963,9.23Z"/>
</svg>
