<?xml version="1.0" encoding="UTF-8" standalone="no"?>
<!DOCTYPE svg PUBLIC "-//W3C//DTD SVG 1.1//EN" "http://www.w3.org/Graphics/SVG/1.1/DTD/svg11.dtd">
<svg width="100%" height="100%" viewBox="0 0 100 100" version="1.1" xmlns="http://www.w3.org/2000/svg" xmlns:xlink="http://www.w3.org/1999/xlink" xml:space="preserve" xmlns:serif="http://www.serif.com/" style="fill-rule:evenodd;clip-rule:evenodd;stroke-linejoin:round;stroke-miterlimit:1.41421;">
    <g transform="matrix(0.909091,0,0,0.909091,-0.0911049,-0.0911049)">
        <path d="M0,0L0,-0.5C0,-0.776 0.224,-1 0.5,-1L9.5,-1C9.776,-1 10,-0.776 10,-0.5L10,0.5C10,0.776 9.776,1 9.5,1L1,1L1,9.5C1,9.776 0.776,10 0.5,10L-0.5,10C-0.776,10 -1,9.776 -1,9.5L-1,0.5C-1,0.224 -0.776,0 -0.5,0L0,0Z"/>
    </g>
    <g transform="matrix(5.56658e-17,0.909091,-0.909091,5.56658e-17,100.091,-0.0911049)">
        <path d="M0,0L0,-0.5C0,-0.776 0.224,-1 0.5,-1L9.5,-1C9.776,-1 10,-0.776 10,-0.5L10,0.5C10,0.776 9.776,1 9.5,1L1,1L1,9.5C1,9.776 0.776,10 0.5,10L-0.5,10C-0.776,10 -1,9.776 -1,9.5L-1,0.5C-1,0.224 -0.776,0 -0.5,0L0,0Z"/>
    </g>
    <g transform="matrix(-0.909091,1.11332e-16,-1.11332e-16,-0.909091,100.091,100.091)">
        <path d="M0,0L0,-0.5C0,-0.776 0.224,-1 0.5,-1L9.5,-1C9.776,-1 10,-0.776 10,-0.5L10,0.5C10,0.776 9.776,1 9.5,1L1,1L1,9.5C1,9.776 0.776,10 0.5,10L-0.5,10C-0.776,10 -1,9.776 -1,9.5L-1,0.5C-1,0.224 -0.776,0 -0.5,0L0,0Z"/>
    </g>
    <g transform="matrix(5.56658e-17,-0.909091,0.909091,5.56658e-17,-0.0911049,100.091)">
        <path d="M0,0L0,-0.5C0,-0.776 0.224,-1 0.5,-1L9.5,-1C9.776,-1 10,-0.776 10,-0.5L10,0.5C10,0.776 9.776,1 9.5,1L1,1L1,9.5C1,9.776 0.776,10 0.5,10L-0.5,10C-0.776,10 -1,9.776 -1,9.5L-1,0.5C-1,0.224 -0.776,0 -0.5,0L0,0Z"/>
    </g>
</svg>
